# xmcd
#
# Track frame offsets:
#	150
#	14338
#	29049
#	46028
#	59828
#	73878
#	90538
#	112716
#	129261
#	146628
#	165548
#	180555
#	197486
#	212184
#	228062
#	240018
#
# Disc length: 3421 seconds
#
# Revision: 6
# Processed by: cddbd v1.5.1PL0 Copyright (c) Steve Scherf et al.
# Submitted via: EasyCDDAExtractor 5.0.6
#
DISCID=d00d5b10
DTITLE=Lorrie Morgan - The Essential Lorrie Morgan
DYEAR=1998
DGENRE=Country
TTITLE0=Trainwreck Of Emotion
TTITLE1=Out Of Your Shoes
TTITLE2=Dear Me
TTITLE3=Gonna Leave The Light On
TTITLE4=We Both Walk
TTITLE5=Autumn's Not That Cold
TTITLE6=War Paint
TTITLE7=If You Came Back From Heaven
TTITLE8=My Night To Howl
TTITLE9=I Guess You Had To Be There
TTITLE10=I Didn't Know My Own Strength
TTITLE11=Back In Your Arms Again
TTITLE12=I'd Even Move From Venus
TTITLE13=Diamonds From A Willow Tree
TTITLE14=Candy Kisses
TTITLE15=From This Moment On
EXTD=
EXTT0=
EXTT1=
EXTT2=
EXTT3=
EXTT4=
EXTT5=
EXTT6=
EXTT7=
EXTT8=
EXTT9=
EXTT10=
EXTT11=
EXTT12=
EXTT13=
EXTT14=
EXTT15=
PLAYORDER=
